<svg height="511pt" viewBox="-58 1 511 511.99998" width="511pt" xmlns="http://www.w3.org/2000/svg"><path d="m356.144531 0h-317.117187c-21.246094 0-38.527344 17.28125-38.527344 38.527344v38.09375c0 5.5625 4.511719 10.074218 10.074219 10.074218h18.875l40.15625 283.394532c-1.589844.574218-3.171875 1.1875-4.726563 1.875-5.089844 2.25-7.390625 8.203125-5.136718 13.289062 2.25 5.089844 8.203124 7.386719 13.289062 5.136719 6.753906-2.988281 13.960938-4.503906 21.417969-4.503906 29.214843 0 52.980469 23.769531 52.980469 52.980469 0 29.214843-23.765626 52.984374-52.980469 52.984374-25.910157 0-48.417969-19.273437-52.359375-44.828124-.847656-5.5-6-9.277344-11.492188-8.421876-5.5.847657-9.269531 5.992188-8.421875 11.492188 2.632813 17.078125 11.316407 32.742188 24.449219 44.101562 13.269531 11.480469 30.257812 17.804688 47.824219 17.804688 23.457031 0 44.351562-11.109375 57.742187-28.332031h147.050782c5.003906 0 9.25-3.671875 9.96875-8.625l35.46875-243.625c.804687-5.507813-3.011719-10.621094-8.515626-11.421875-5.5-.800782-10.621093 3.011718-11.421874 8.519531l-34.214844 235.003906h-127.230469c2.765625-7.707031 4.285156-16.003906 4.285156-24.652343 0-40.324219-32.808593-73.128907-73.132812-73.128907-1.703125 0-3.394531.078125-5.082031.191407l-39.570313-279.234376h295.324219l-10.238282 62.566407c-.898437 5.492187 2.828126 10.671875 8.316407 11.570312 5.496093.886719 10.671875-2.828125 11.570312-8.316406l10.769531-65.820313h19.058594c5.5625 0 10.074219-4.511718 10.074219-10.074218v-38.09375c0-21.246094-17.28125-38.527344-38.527344-38.527344zm18.378907 66.546875h-353.875v-28.019531c0-10.132813 8.246093-18.378906 18.378906-18.378906h40.324218v17.53125c0 5.5625 4.507813 10.074218 10.074219 10.074218 5.5625 0 10.074219-4.511718 10.074219-10.074218v-17.53125h201.855469v17.53125c0 5.5625 4.511719 10.074218 10.078125 10.074218 5.5625 0 10.074218-4.511718 10.074218-10.074218v-17.53125h34.636719c10.132813 0 18.378907 8.246093 18.378907 18.378906zm0 0"/><path d="m94.449219 477.675781c21.398437 0 38.808593-17.40625 38.808593-38.808593 0-21.398438-17.410156-38.804688-38.808593-38.804688-21.398438 0-38.808594 17.40625-38.808594 38.804688 0 21.402343 17.410156 38.808593 38.808594 38.808593zm0-57.464843c10.289062 0 18.65625 8.371093 18.65625 18.660156 0 10.285156-8.367188 18.65625-18.65625 18.65625-10.289063 0-18.65625-8.371094-18.65625-18.65625 0-10.289063 8.367187-18.660156 18.65625-18.660156zm0 0"/><path d="m292.664062 241.164062c5.5625 0 10.074219-4.511718 10.074219-10.074218 0-36.691406-19.75-70.90625-51.539062-89.300782-2.3125-1.339843-5.066407-1.703124-7.648438-1.011718s-4.785156 2.378906-6.125 4.695312l-28.285156 48.996094c-3.09375-.804688-6.292969-1.226562-9.511719-1.226562s-6.414062.421874-9.507812 1.226562l-28.289063-48.996094c-1.335937-2.316406-3.539062-4.007812-6.121093-4.695312-2.585938-.691406-5.335938-.328125-7.648438 1.011718-31.792969 18.394532-51.542969 52.609376-51.542969 89.300782 0 5.5625 4.511719 10.074218 10.078125 10.074218h56.570313c1.722656 6.191407 5 11.867188 9.507812 16.460938l-28.292969 49.007812c-2.78125 4.8125-1.136718 10.972657 3.679688 13.753907 15.609375 9.035156 33.441406 13.808593 51.566406 13.808593s35.957032-4.773437 51.570313-13.808593c4.8125-2.78125 6.457031-8.941407 3.679687-13.753907l-28.296875-49.007812c4.507813-4.589844 7.785157-10.269531 9.507813-16.460938zm-43.136718-76.347656c17.933594 13.546875 29.691406 33.914063 32.441406 56.195313h-45.867188c-.117187-.40625-.253906-.808594-.382812-1.214844-.105469-.332031-.199219-.667969-.308594-.996094-.160156-.453125-.339844-.902343-.511718-1.347656-.121094-.308594-.226563-.617187-.355469-.921875-.203125-.484375-.429688-.953125-.648438-1.429688-.121093-.257812-.230469-.523437-.359375-.777343-.308594-.621094-.640625-1.230469-.980468-1.832031-.058594-.101563-.105469-.207032-.164063-.308594-.402344-.699219-.832031-1.386719-1.277344-2.058594-.144531-.214844-.304687-.421875-.453125-.636719-.3125-.449219-.625-.902343-.957031-1.339843-.195313-.257813-.410156-.5-.613281-.753907-.300782-.378906-.601563-.761719-.921875-1.132812-.230469-.265625-.476563-.515625-.714844-.777344-.289063-.3125-.566406-.632813-.863281-.9375zm-41.058594 50.945313c5.464844 3.160156 8.855469 9.035156 8.855469 15.328125 0 6.292968-3.390625 12.164062-8.855469 15.324218-2.679688 1.550782-5.734375 2.371094-8.839844 2.371094-3.101562 0-6.160156-.820312-8.835937-2.371094-.003907 0-.003907 0-.003907 0-5.460937-3.164062-8.855468-9.035156-8.855468-15.324218 0-1.574219.214844-3.121094.617187-4.605469.199219-.742187.449219-1.46875.746094-2.175781.148437-.355469.304687-.703125.476563-1.046875 1.527343-3.085938 3.945312-5.722657 7.019531-7.5 2.675781-1.550781 5.734375-2.371094 8.835937-2.371094 3.105469.003906 6.160156.820313 8.839844 2.371094zm-58.734375-50.945313 22.941406 39.730469c-.300781.304687-.578125.625-.863281.9375-.238281.261719-.488281.511719-.71875.777344-.320312.371093-.617188.753906-.921875 1.132812-.203125.253907-.417969.496094-.613281.753907-.332032.4375-.644532.890624-.957032 1.339843-.148437.214844-.308593.421875-.453124.636719-.445313.671875-.871094 1.359375-1.277344 2.058594-.058594.101562-.105469.207031-.164063.308594-.339843.601562-.671875 1.210937-.980469 1.832031-.125.253906-.234374.519531-.355468.777343-.222656.476563-.449219.945313-.652344 1.429688-.125.304688-.234375.613281-.351562.921875-.175782.445313-.355469.894531-.511719 1.347656-.113281.328125-.207031.664063-.3125.996094-.128907.40625-.265625.808594-.378907 1.214844h-45.871093c2.746093-22.28125 14.507812-42.648438 32.441406-56.195313zm49.894531 149.230469c-11.191406 0-22.246094-2.261719-32.453125-6.59375l22.941407-39.734375c.339843.085938.6875.152344 1.03125.230469.414062.097656.824218.199219 1.238281.28125.234375.042969.46875.074219.703125.113281 2.152344.378906 4.339844.589844 6.542968.589844 2.195313 0 4.375-.207032 6.519532-.585938.242187-.042968.488281-.074218.726562-.121094.40625-.078124.804688-.175781 1.207032-.269531.355468-.082031.710937-.148437 1.058593-.238281l22.941407 39.734375c-10.210938 4.332031-21.261719 6.59375-32.457032 6.59375zm0 0"/><path d="m41.46875 420.882812c1.878906 0 3.78125-.523437 5.476562-1.625l.238282-.15625c4.667968-3.027343 5.996094-9.269531 2.964844-13.933593-3.027344-4.667969-9.265626-5.996094-13.933594-2.96875l-.242188.15625c-4.667968 3.03125-5.996094 9.269531-2.964844 13.9375 1.929688 2.972656 5.160157 4.589843 8.460938 4.589843zm0 0"/><path d="m333.683594 182.230469-.238282.15625c-4.667968 3.027343-5.996093 9.269531-2.96875 13.9375 1.929688 2.972656 5.164063 4.589843 8.460938 4.589843 1.878906 0 3.78125-.523437 5.476562-1.625l.242188-.15625c4.664062-3.027343 5.992188-9.269531 2.964844-13.9375-3.027344-4.667968-9.269532-5.992187-13.9375-2.964843zm0 0"/></svg>