<svg height="512pt" viewBox="0 0 512 512" width="512pt" xmlns="http://www.w3.org/2000/svg"><path d="m256 69.734375c-102.707031 0-186.265625 83.558594-186.265625 186.265625s83.558594 186.265625 186.265625 186.265625 186.265625-83.558594 186.265625-186.265625-83.558594-186.265625-186.265625-186.265625zm-83.589844 318.238281v-48.71875c0-33.335937 27.121094-60.457031 60.457032-60.457031h46.265624c33.335938 0 60.457032 27.121094 60.457032 60.457031v48.71875c-24.191406 15.375-52.867188 24.292969-83.589844 24.292969s-59.398438-8.917969-83.589844-24.292969zm83.589844-139.175781c-23.378906 0-42.398438-19.019531-42.398438-42.398437 0-23.378907 19.019532-42.398438 42.398438-42.398438s42.398438 19.019531 42.398438 42.398438c0 23.378906-19.019532 42.398437-42.398438 42.398437zm113.589844 114.398437v-23.941406c0-38.960937-24.761719-72.246094-59.371094-84.953125 11.300781-12.773437 18.179688-29.546875 18.179688-47.902343 0-39.921876-32.476563-72.398438-72.398438-72.398438s-72.398438 32.476562-72.398438 72.398438c0 18.355468 6.878907 35.128906 18.179688 47.902343-34.609375 12.707031-59.371094 45.992188-59.371094 84.953125v23.941406c-26.4375-28-42.675781-65.734374-42.675781-107.195312 0-86.164062 70.101563-156.265625 156.265625-156.265625s156.265625 70.101563 156.265625 156.265625c0 41.460938-16.238281 79.195312-42.675781 107.195312zm0 0"/><path d="m437.019531 74.980469c-48.351562-48.351563-112.640625-74.980469-181.019531-74.980469s-132.667969 26.628906-181.019531 74.980469c-48.351563 48.351562-74.980469 112.640625-74.980469 181.019531s26.628906 132.667969 74.980469 181.019531c48.351562 48.351563 112.640625 74.980469 181.019531 74.980469s132.667969-26.628906 181.019531-74.980469c48.351563-48.351562 74.980469-112.640625 74.980469-181.019531s-26.628906-132.667969-74.980469-181.019531zm-181.019531 407.019531c-124.617188 0-226-101.382812-226-226s101.382812-226 226-226 226 101.382812 226 226-101.382812 226-226 226zm0 0"/></svg>